<?xml version="1.0" encoding="UTF-8"?>
<svg version="1.1" xmlns="http://www.w3.org/2000/svg" width="214" height="385">
<path d="M0 0 C0.99 0 1.98 0 3 0 C3 126.06 3 252.12 3 382 C2.01 382 1.02 382 0 382 C0 360.22 0 338.44 0 316 C-10.23 316 -20.46 316 -31 316 C-31 310.72 -31 305.44 -31 300 C-29.66066406 299.81824219 -28.32132813 299.63648438 -26.94140625 299.44921875 C-25.14837509 299.19575361 -23.35540977 298.94182242 -21.5625 298.6875 C-20.68400391 298.56955078 -19.80550781 298.45160156 -18.90039062 298.33007812 C-9.28301857 297.28982853 -9.28301857 297.28982853 -1 293 C0.94430524 276.00846294 -3.14009926 262.35754486 -9.5144043 246.69702148 C-11.74066696 241.15679216 -13.8566097 235.57281477 -16 230 C-50.65 229.67 -85.3 229.34 -121 229 C-121.33 230.65 -121.66 232.3 -122 234 C-122.66143204 235.77908259 -123.36815268 237.54171689 -124.109375 239.2890625 C-124.53234863 240.30411865 -124.95532227 241.3191748 -125.39111328 242.36499023 C-125.8395459 243.44079346 -126.28797852 244.51659668 -126.75 245.625 C-136.54221699 267.92049661 -136.54221699 267.92049661 -135.8125 291.4375 C-132.4629262 296.17310434 -128.49017657 297.45098437 -122.890625 298.59375 C-116.62749786 299.47397327 -110.31260096 299.6817176 -104 300 C-104 305.28 -104 310.56 -104 316 C-137.99 316 -171.98 316 -207 316 C-207 310.72 -207 305.44 -207 300 C-205.88882813 299.76925781 -204.77765625 299.53851563 -203.6328125 299.30078125 C-192.27441218 296.84822517 -180.82949509 294.19463002 -173.1484375 284.71484375 C-168.74059034 277.81180557 -165.48278253 270.66289188 -162.4453125 263.06640625 C-161.98161255 261.91756958 -161.5179126 260.76873291 -161.04016113 259.58508301 C-159.35066548 255.39381989 -157.67482377 251.1971434 -156 247 C-155.67138725 246.1769273 -155.34277451 245.3538546 -155.0042038 244.5058403 C-149.73718896 231.31128555 -144.48985284 218.10891857 -139.24414062 204.90588379 C-126.45323587 172.71367635 -113.63511729 140.53270584 -100.71875 108.390625 C-100.46993513 107.77145014 -100.22112026 107.15227528 -99.96476555 106.51433754 C-94.8975221 93.90525034 -89.82513602 81.29823386 -84.7496109 68.69247818 C-82.97752595 64.29106246 -81.20600212 59.88942097 -79.4344635 55.48778534 C-78.22302354 52.47885702 -77.01043475 49.47039363 -75.79772949 46.4619751 C-75.0669328 44.64686794 -74.33617675 42.83174442 -73.60546875 41.01660156 C-73.28162956 40.21426086 -72.95779037 39.41192017 -72.62413788 38.58526611 C-72.32044533 37.83027832 -72.01675278 37.07529053 -71.70385742 36.29742432 C-71.44537521 35.65601627 -71.18689301 35.01460823 -70.920578 34.35376358 C-69.57638169 30.91687903 -68.29578533 27.45542754 -67 24 C-57.43 24 -47.86 24 -38 24 C-30.02621469 42.8902771 -22.18063032 61.82660803 -14.4375 80.8125 C-13.99925903 81.88684296 -13.56101807 82.96118591 -13.10949707 84.06808472 C-11.84185725 87.1766269 -10.57498094 90.28547857 -9.30859375 93.39453125 C-8.74515511 94.77745865 -8.74515511 94.77745865 -8.17033386 96.18832397 C-7.81175797 97.06952911 -7.45318207 97.95073425 -7.08374023 98.85864258 C-6.77653549 99.61341385 -6.46933075 100.36818512 -6.15281677 101.14582825 C-4.42401176 105.42604568 -2.7144026 109.7139935 -1 114 C-0.67 76.38 -0.34 38.76 0 0 Z M-68 94 C-78.60592634 120.7777197 -89.16472999 147.57370376 -99.68603516 174.38476562 C-100.14267044 175.54809921 -100.59930573 176.7114328 -101.06977844 177.91001892 C-101.92244414 180.08239689 -102.77483251 182.25488374 -103.62687683 184.42750549 C-104.01273453 185.41057175 -104.39859222 186.393638 -104.79614258 187.40649414 C-105.16212555 188.34131622 -105.52810852 189.27613831 -105.90518188 190.23928833 C-106.64815019 192.11276964 -107.4051466 193.98073666 -108.1746521 195.84347534 C-108.5420047 196.73487213 -108.9093573 197.62626892 -109.2878418 198.54467773 C-109.61753464 199.33228989 -109.94722748 200.11990204 -110.28691101 200.93138123 C-111.16294881 203.10802309 -111.16294881 203.10802309 -111 206 C-82.62 206 -54.24 206 -25 206 C-25.86757712 200.72124323 -25.86757712 200.72124323 -27.44848633 195.84545898 C-27.89319778 194.6883844 -27.89319778 194.6883844 -28.34689331 193.50793457 C-28.67198883 192.6790271 -28.99708435 191.85011963 -29.33203125 190.99609375 C-29.67614044 190.10442505 -30.02024963 189.21275635 -30.37478638 188.29406738 C-31.51572542 185.33993107 -32.66421086 182.38878614 -33.8125 179.4375 C-35.44823341 175.20945928 -37.07971583 170.97978313 -38.7109375 166.75 C-39.13686691 165.6469603 -39.56279633 164.54392059 -40.00163269 163.40745544 C-43.22108898 155.05749431 -46.39122365 146.68970074 -49.5390625 138.3125 C-50.21841103 136.50532249 -50.21841103 136.50532249 -50.91148376 134.66163635 C-52.69417827 129.9168931 -54.47571847 125.17173011 -56.25186157 120.42453003 C-57.48679588 117.12443794 -58.72554677 113.82579947 -59.96484375 110.52734375 C-60.32973907 109.54809937 -60.6946344 108.56885498 -61.07058716 107.55993652 C-62.82629748 102.89503313 -64.65546062 98.40054124 -67 94 C-67.33 94 -67.66 94 -68 94 Z " fill="#070707" transform="translate(208,3)"/>
<path d="M0 0 C0.99 0 1.98 0 3 0 C3 126.06 3 252.12 3 382 C2.01 382 1.02 382 0 382 C0 360.22 0 338.44 0 316 C-10.23 316 -20.46 316 -31 316 C-31 310.72 -31 305.44 -31 300 C-28.99099609 299.72736328 -28.99099609 299.72736328 -26.94140625 299.44921875 C-25.14837509 299.19575361 -23.35540977 298.94182242 -21.5625 298.6875 C-20.68400391 298.56955078 -19.80550781 298.45160156 -18.90039062 298.33007812 C-11.44547125 297.25722995 -4.72574073 295.40809016 2 292 C1.91616594 269.6430079 1.821057 247.28608918 1.71247292 224.92920303 C1.66232082 214.5488457 1.6158782 204.16849638 1.578125 193.78808594 C1.54521541 184.74202152 1.50538992 175.69601872 1.45720994 166.65002227 C1.43193469 161.85889047 1.41015643 157.06779961 1.39665604 152.27661896 C1.38384502 147.76883315 1.36180096 143.26118764 1.33261681 138.753479 C1.32353353 137.09746566 1.31784905 135.44142973 1.31578636 133.78539276 C1.3124691 131.52703619 1.29700655 129.26907869 1.2784729 127.01080322 C1.27294214 125.74610325 1.26741138 124.48140327 1.26171303 123.17837906 C1.00781432 120.09490122 0.41631756 118.657053 -1 116 C-1.23047829 113.6961937 -1.23047829 113.6961937 -1.20254517 111.11517334 C-1.19688034 110.13363281 -1.19121552 109.15209229 -1.18537903 108.14080811 C-1.16056709 106.53535126 -1.16056709 106.53535126 -1.13525391 104.89746094 C-1.12579239 103.76546265 -1.11633087 102.63346436 -1.10658264 101.46716309 C-1.0728849 97.7227368 -1.02477426 93.97864023 -0.9765625 90.234375 C-0.95039749 87.63935205 -0.92513032 85.0443199 -0.90072632 82.44927979 C-0.84087062 76.31526383 -0.77195522 70.18141087 -0.69865549 64.04754281 C-0.61569995 57.06338207 -0.54430987 50.07911808 -0.47388959 43.09482145 C-0.32879222 28.72973042 -0.1691761 14.36482662 0 0 Z " fill="#313131" transform="translate(208,3)"/>
</svg>
