<?xml version="1.0" encoding="UTF-8"?>
<svg version="1.1" xmlns="http://www.w3.org/2000/svg" width="100" height="399">
<path d="M0 0 C0.99 0 1.98 0 3 0 C3 126.39 3 252.78 3 383 C1.68 382.67 0.36 382.34 -1 382 C-1 367.48 -1 352.96 -1 338 C-30.7 338 -60.4 338 -91 338 C-91 332.39 -91 326.78 -91 321 C-88.84791016 320.74476563 -88.84791016 320.74476563 -86.65234375 320.484375 C-84.74729383 320.24037846 -82.84235131 319.99554229 -80.9375 319.75 C-79.99455078 319.64042969 -79.05160156 319.53085937 -78.08007812 319.41796875 C-72.08974565 318.62482368 -68.07602165 317.26267527 -63 314 C-62.34 314 -61.68 314 -61 314 C-49.98476094 292.36292327 -52.69742543 266.51506278 -52.73134899 242.8660171 C-52.73648021 238.15844297 -52.73169814 233.4508759 -52.72857666 228.74330139 C-52.72495782 220.8450478 -52.72968136 212.94683184 -52.73925781 205.04858398 C-52.75014209 195.96787086 -52.74660849 186.88724758 -52.735605 177.80653661 C-52.72647685 169.95366435 -52.72527356 162.10081885 -52.73048234 154.24794298 C-52.73357138 149.58236857 -52.73409713 144.91683614 -52.72740936 140.25126457 C-52.72155514 135.86220994 -52.72577736 131.47326917 -52.73719788 127.08422661 C-52.73980177 125.49092293 -52.73915449 123.89760935 -52.73467255 122.30430984 C-52.71285709 113.74839634 -53.0334926 105.31238723 -53.90289307 96.79664612 C-53.98193556 96.01185094 -54.06097805 95.22705576 -54.14241576 94.41847891 C-54.98879127 86.83531638 -56.56730796 80.07287415 -61.375 74 C-66.88937278 69.79857312 -72.10979373 68.38069165 -78.8125 67.375 C-86.88682266 66.11317734 -86.88682266 66.11317734 -88 65 C-88 59.72 -88 54.44 -88 49 C-59.29 49 -30.58 49 -1 49 C-1.03960829 33.24815194 -1.03960829 33.24815194 -1.09008789 17.49633789 C-1.0930069 15.53011123 -1.09555549 13.56388396 -1.09765625 11.59765625 C-1.10277222 10.56636597 -1.10788818 9.53507568 -1.11315918 8.47253418 C-1.11334045 7.01091858 -1.11334045 7.01091858 -1.11352539 5.51977539 C-1.115746 4.66928116 -1.11796661 3.81878693 -1.12025452 2.94252014 C-1 1 -1 1 0 0 Z " fill="#0B0B0B" transform="translate(93,9)"/>
</svg>
