<?xml version="1.0" encoding="UTF-8"?>
<svg version="1.1" xmlns="http://www.w3.org/2000/svg" width="204" height="390">
<path d="M0 0 C0.99 0 1.98 0 3 0 C3 126.06 3 252.12 3 382 C2.01 382 1.02 382 0 382 C0 367.15 0 352.3 0 337 C-9.24 337 -18.48 337 -28 337 C-28 331.72 -28 326.44 -28 321 C-26.70964844 320.89042969 -25.41929687 320.78085937 -24.08984375 320.66796875 C-22.37233937 320.50841916 -20.65489442 320.34822888 -18.9375 320.1875 C-18.08994141 320.11724609 -17.24238281 320.04699219 -16.36914062 319.97460938 C-8.03871158 319.19344101 -8.03871158 319.19344101 -1 315 C-0.10277726 309.91195206 -0.60062606 305.96651427 -3.4375 301.625 C-4.59561641 300.06113979 -5.78527139 298.52030483 -7 297 C-7.63035156 296.20335937 -8.26070312 295.40671875 -8.91015625 294.5859375 C-10.78094253 292.27105803 -12.67613741 289.97894343 -14.58544922 287.69580078 C-17.42688464 284.28941306 -20.24250905 280.8616412 -23.0625 277.4375 C-23.67343506 276.69636963 -24.28437012 275.95523926 -24.91381836 275.19165039 C-28.61294577 270.69996003 -32.27656398 266.18321955 -35.8984375 261.62890625 C-40.32725727 256.08876553 -44.81807392 250.59842178 -49.29443359 245.09667969 C-52.03116479 241.73237286 -54.76549605 238.36611716 -57.5 235 C-58.56639396 233.68749002 -59.63280028 232.37499007 -60.69921875 231.0625 C-68.84960938 221.03125 -68.84960938 221.03125 -77 211 C-84.55732277 214.32417504 -91.28905986 219.51789015 -95 227 C-97.25096437 236.87943345 -96.47635317 247.33194571 -96.07788086 257.39337158 C-95.97410749 260.36693403 -95.93018298 263.33995132 -95.88963318 266.31495094 C-96.71378607 290.66146396 -96.71378607 290.66146396 -89 313 C-81.35257288 320.07517067 -70.85105806 320.25181838 -61 321 C-61 326.28 -61 331.56 -61 337 C-103.9 337 -146.8 337 -191 337 C-191 331.72 -191 326.44 -191 321 C-189.80503906 320.89042969 -188.61007813 320.78085937 -187.37890625 320.66796875 C-171.19666097 319.53295106 -171.19666097 319.53295106 -158 311 C-153.67809549 302.84102002 -152.84762959 294.69690761 -152.86628723 285.5635376 C-152.8628889 284.32889161 -152.8628889 284.32889161 -152.85942191 283.06930327 C-152.85311742 280.32515906 -152.85390899 277.58106469 -152.85473633 274.83691406 C-152.8517426 272.86360613 -152.84833958 270.89029877 -152.84455872 268.91699219 C-152.83573578 263.56559598 -152.8333813 258.21421577 -152.83274293 252.862813 C-152.8320314 249.5163462 -152.82989512 246.16988345 -152.82724571 242.82341766 C-152.8179976 231.1397628 -152.81391012 219.45611934 -152.81469727 207.77246094 C-152.81529776 196.89630414 -152.80475009 186.02019698 -152.7889536 175.14405274 C-152.77585995 165.79434548 -152.77051414 156.4446544 -152.77115268 147.09493804 C-152.77140715 141.51615767 -152.76858411 135.93742142 -152.75797462 130.35865021 C-152.74826305 125.1088133 -152.74823541 119.85906243 -152.75549126 114.60922241 C-152.75653333 112.68844222 -152.75419673 110.76765658 -152.7481308 108.84688568 C-152.04326765 89.96548917 -152.04326765 89.96548917 -159 73 C-163.5347384 69.36415945 -167.41619117 68.16791432 -173 67.3125 C-173.68578125 67.19583984 -174.3715625 67.07917969 -175.078125 66.95898438 C-177.04987448 66.62596943 -179.0249095 66.31258993 -181 66 C-182.98 65.67 -184.96 65.34 -187 65 C-187 59.72 -187 54.44 -187 49 C-144.1 49 -101.2 49 -57 49 C-57 54.28 -57 59.56 -57 65 C-58.4953125 65.17015625 -59.990625 65.3403125 -61.53125 65.515625 C-63.52092847 65.75964217 -65.51050675 66.0044773 -67.5 66.25 C-68.97339844 66.41435547 -68.97339844 66.41435547 -70.4765625 66.58203125 C-77.76685233 67.50546796 -83.81592774 68.98803975 -89.3125 74.1875 C-94.75394675 83.25657792 -95.15665268 93.31804177 -95.11352539 103.62890625 C-95.11367142 104.55666367 -95.11381744 105.48442108 -95.1139679 106.44029236 C-95.11327593 109.48105273 -95.1055173 112.52175044 -95.09765625 115.5625 C-95.09578952 117.68098924 -95.09436682 119.79947892 -95.09336853 121.91796875 C-95.08956341 127.47456061 -95.07975035 133.03112605 -95.06866455 138.58770752 C-95.05840721 144.26549929 -95.05386167 149.94329537 -95.04882812 155.62109375 C-95.03812619 166.7474074 -95.02107398 177.8737015 -95 189 C-93.73865067 187.7514345 -92.47917286 186.50097819 -91.22045898 185.24975586 C-90.51888168 184.55361679 -89.81730438 183.85747772 -89.09446716 183.14024353 C-86.53010293 180.51983293 -84.13876159 177.77704069 -81.74658203 175.00048828 C-78.73963584 171.55641264 -75.58303599 168.25458233 -72.4375 164.9375 C-71.02448973 163.44164222 -69.61173415 161.94554383 -68.19921875 160.44921875 C-67.49587402 159.70462402 -66.7925293 158.9600293 -66.06787109 158.19287109 C-58.16981627 149.81738958 -50.33800306 141.37992984 -42.53808594 132.91308594 C-38.70892713 128.759551 -34.85754118 124.62717409 -31 120.5 C-27.60450013 116.86638262 -24.21039546 113.23159686 -20.83203125 109.58203125 C-20.32841064 109.03877197 -19.82479004 108.4955127 -19.3059082 107.93579102 C-18.31438227 106.85803134 -17.3297454 105.77389084 -16.35229492 104.68334961 C-13.96787638 102.03645582 -11.57520096 99.58766084 -8.84375 97.296875 C-2.49492345 91.71854686 -0.44469643 87.72930895 0.10473633 79.31616211 C0.22494358 74.86282014 0.17032276 70.45215768 0 66 C-5.61 65.67 -11.22 65.34 -17 65 C-17 59.72 -17 54.44 -17 49 C-11.39 49 -5.78 49 0 49 C0 32.83 0 16.66 0 0 Z M-4.3515625 131.21875 C-5.03863281 131.90453125 -5.72570312 132.5903125 -6.43359375 133.296875 C-7.15675781 134.02390625 -7.87992188 134.7509375 -8.625 135.5 C-9.32496094 136.19609375 -10.02492187 136.8921875 -10.74609375 137.609375 C-14.1125651 140.98209212 -17.38543444 144.38905596 -20.49609375 148 C-24.2706523 152.37848792 -28.32717426 156.43856194 -32.4375 160.5 C-33.16904297 161.22703125 -33.90058594 161.9540625 -34.65429688 162.703125 C-36.43389824 164.47109499 -38.21580918 166.23666378 -40 168 C-37.25714159 172.2765681 -34.27381701 176.16524238 -30.9375 180 C-27.02306675 184.55707191 -23.24117709 189.18832254 -19.5625 193.9375 C-13.41256787 201.85921955 -7.0974999 209.9025001 0 217 C0 187.63 0 158.26 0 128 C-1.87644057 128 -3.10097603 129.97043674 -4.3515625 131.21875 Z " fill="#070707" transform="translate(196,5)"/>
<path d="M0 0 C0.99 0 1.98 0 3 0 C3 126.06 3 252.12 3 382 C2.01 382 1.02 382 0 382 C0 367.15 0 352.3 0 337 C-9.24 337 -18.48 337 -28 337 C-28 331.72 -28 326.44 -28 321 C-26.70964844 320.89042969 -25.41929687 320.78085937 -24.08984375 320.66796875 C-22.37233937 320.50841916 -20.65489442 320.34822888 -18.9375 320.1875 C-18.08994141 320.11724609 -17.24238281 320.04699219 -16.36914062 319.97460938 C-8.03871158 319.19344101 -8.03871158 319.19344101 -1 315 C-0.76924918 313.65252916 -0.58846937 312.29622435 -0.4375 310.9375 C-0.293125 309.638125 -0.14875 308.33875 0 307 C0.33 307 0.66 307 1 307 C1 235.39 1 163.78 1 90 C-3.95 94.95 -3.95 94.95 -9 100 C-9.66 99.67 -10.32 99.34 -11 99 C-10.28972656 98.46117188 -9.57945312 97.92234375 -8.84765625 97.3671875 C-2.64034149 91.81281608 -0.42732993 87.80726322 0.06079102 79.35791016 C0.15487457 74.89555931 0.13389677 70.46191294 0 66 C-5.61 65.67 -11.22 65.34 -17 65 C-17 59.72 -17 54.44 -17 49 C-11.39 49 -5.78 49 0 49 C0 32.83 0 16.66 0 0 Z " fill="#282828" transform="translate(196,5)"/>
<path d="M0 0 C0.33 0 0.66 0 1 0 C1 28.71 1 57.42 1 87 C0.67 87 0.34 87 0 87 C0 79.74 0 72.48 0 65 C-5.94 64.67 -11.88 64.34 -18 64 C-18 58.72 -18 53.44 -18 48 C-12.06 48 -6.12 48 0 48 C0 32.16 0 16.32 0 0 Z " fill="#0B0B0B" transform="translate(197,6)"/>
<path d="M0 0 C0.33 0 0.66 0 1 0 C3.91831276 21.21995885 3.91831276 21.21995885 -0.3828125 26.9765625 C-2.96060216 29.71750878 -5.85084152 31.93919069 -9 34 C-9.66 33.67 -10.32 33.34 -11 33 C-10.28972656 32.46117187 -9.57945312 31.92234375 -8.84765625 31.3671875 C-2.64034149 25.81281608 -0.42732993 21.80726322 0.06079102 13.35791016 C0.15478518 8.89979921 0.16158009 4.45642599 0 0 Z " fill="#929292" transform="translate(196,71)"/>
</svg>
