<?xml version="1.0" encoding="UTF-8"?>
<svg version="1.1" xmlns="http://www.w3.org/2000/svg" width="203" height="384">
<path d="M0 0 C0.99 0 1.98 0 3 0 C3 126.06 3 252.12 3 382 C2.01 382 1.02 382 0 382 C-0.33 357.25 -0.66 332.5 -1 307 C-5.29 317.89 -9.58 328.78 -14 340 C-15 341 -15 341 -17.68383789 341.11352539 C-18.85164795 341.10828857 -20.01945801 341.10305176 -21.22265625 341.09765625 C-22.48271484 341.09443359 -23.74277344 341.09121094 -25.04101562 341.08789062 C-26.38151109 341.07953403 -27.72200588 341.07106907 -29.0625 341.0625 C-30.40689942 341.0574866 -31.7513006 341.05292342 -33.09570312 341.04882812 C-36.39717941 341.03699488 -39.69856803 341.02050971 -43 341 C-46.37589053 334.45519237 -49.40997409 327.85703371 -52.16015625 321.02734375 C-52.5424086 320.08763733 -52.92466095 319.14793091 -53.3184967 318.17974854 C-54.57015844 315.10047113 -55.81628738 312.01898624 -57.0625 308.9375 C-57.94928243 306.75348966 -58.83649747 304.56965493 -59.72412109 302.38598633 C-61.56760185 297.84980245 -63.40922397 293.31287076 -65.24951172 288.77539062 C-69.11174274 279.25638405 -72.99566663 269.74624511 -76.87991333 260.23620605 C-78.13121253 257.17228805 -79.38197134 254.10814998 -80.63256836 251.04394531 C-87.96111422 233.08832312 -95.30309922 215.13821095 -102.64910889 197.18972778 C-105.72872407 189.66460069 -108.80474746 182.13800823 -111.88034058 174.61123657 C-114.89848563 167.22601224 -117.92118669 159.84266117 -120.94631958 152.46029663 C-122.84739155 147.8197411 -124.74297108 143.17702284 -126.63166809 138.53141785 C-140.92087727 97.90957404 -140.92087727 97.90957404 -170.44921875 69.18359375 C-177.44328786 66.85223738 -184.70659306 65.92383155 -192 65 C-192 59.72 -192 54.44 -192 49 C-145.14 49 -98.28 49 -50 49 C-50 54.28 -50 59.56 -50 65 C-51.5675 65.17015625 -53.135 65.3403125 -54.75 65.515625 C-56.83342564 65.7596298 -58.91675408 66.00446555 -61 66.25 C-62.54494141 66.41435547 -62.54494141 66.41435547 -64.12109375 66.58203125 C-70.5536146 67.36048919 -75.47903292 68.53637443 -81 72 C-83.65051749 79.95155246 -82.26584785 88.13542233 -79.84375 95.953125 C-79.61984589 96.69263397 -79.39594177 97.43214294 -79.16525269 98.19406128 C-77.00971727 105.19268705 -74.53740382 112.06012662 -71.95779419 118.91183472 C-70.41842001 123.00274881 -68.90092768 127.10182449 -67.37890625 131.19921875 C-67.0396965 132.11073196 -66.70048676 133.02224518 -66.35099792 133.96138 C-61.77618465 146.26640363 -57.288709 158.60348255 -52.79191208 170.93716812 C-51.57409463 174.27689765 -50.35551565 177.61634926 -49.13696289 180.95581055 C-47.64031671 185.05751002 -46.14372357 189.15922879 -44.64744568 193.26106262 C-40.90195753 203.52878436 -37.15461324 213.79582751 -33.40625 224.0625 C-33.13771147 224.79802156 -32.86917294 225.53354313 -32.59249687 226.29135323 C-31.26651083 229.92317637 -29.9404982 233.55498982 -28.61447144 237.1867981 C-26.15037154 243.93567102 -23.68652911 250.68463794 -21.22265625 257.43359375 C-20.39721788 259.69458047 -19.57177855 261.95556685 -18.74633789 264.21655273 C-18.16422526 265.81103516 -17.58211263 267.40551758 -17 269 C-15.52323646 265.39353495 -14.04832664 261.78631737 -12.57495117 258.1784668 C-11.83409312 256.36534542 -11.09187164 254.55278134 -10.34960938 252.74023438 C-9.86943359 251.56396484 -9.38925781 250.38769531 -8.89453125 249.17578125 C-8.45987549 248.11270752 -8.02521973 247.04963379 -7.57739258 245.9543457 C-7.34440051 245.34974864 -7.11140844 244.74515158 -6.87135601 244.12223339 C-6.22035192 242.53667869 -5.49310192 240.98204832 -4.72908497 239.44775105 C0.1912612 228.6990496 -0.29028006 218.11941368 -0.34057617 206.50268555 C-0.33211204 204.24463011 -0.32146295 201.98658198 -0.30880737 199.72854614 C-0.28077442 193.6323002 -0.28311268 187.53640749 -0.29110122 181.44011664 C-0.29423563 175.05660855 -0.26916454 168.67321111 -0.24714661 162.28974915 C-0.21400019 151.58644518 -0.19808714 140.88327717 -0.19555664 130.17993164 C-0.192904 119.16166043 -0.17973671 108.14348339 -0.15258789 97.12524414 C-0.15091451 96.44463756 -0.14924113 95.76403098 -0.14751705 95.06279995 C-0.1390568 91.64796544 -0.13039152 88.23313148 -0.12162435 84.81829774 C-0.04930216 56.54554888 -0.01318425 28.27283405 0 0 Z " fill="#060606" transform="translate(196,2)"/>
<path d="M0 0 C0.99 0 1.98 0 3 0 C3 126.06 3 252.12 3 382 C2.67 382 2.34 382 2 382 C1.67 331.84 1.34 281.68 1 230 C0.34 230.33 -0.32 230.66 -1 231 C-0.67 154.77 -0.34 78.54 0 0 Z " fill="#666666" transform="translate(196,2)"/>
</svg>
